<?xml version="1.0" encoding="UTF-8" standalone="no"?> <svg width="64" height="64" viewBox="0 0 64 64" fill="none" xmlns="http://www.w3.org/2000/svg">
<path d="M58.4601 22.6601V22.5001C58.4705 22.4171 58.4705 22.3331 58.4601 22.2501C58.465 22.2002 58.465 22.15 58.4601 22.1001C58.445 21.9994 58.4147 21.9016 58.3701 21.8101C58.3701 21.8101 58.3701 21.7501 58.3701 21.7201L53.0001 10.6701C52.879 10.4177 52.6889 10.2048 52.4517 10.0561C52.2145 9.90741 51.94 9.82904 51.6601 9.83009H12.3801C12.1002 9.82904 11.8257 9.90741 11.5885 10.0561C11.3513 10.2048 11.1611 10.4177 11.0401 10.6701L5.65009 21.6701C5.65009 21.6701 5.65009 21.7301 5.65009 21.7601C5.6055 21.8516 5.57515 21.9494 5.56009 22.0501C5.55514 22.1 5.55514 22.1502 5.56009 22.2001C5.54963 22.2831 5.54963 22.3671 5.56009 22.4501V22.6101C5.57412 22.6849 5.59418 22.7585 5.62009 22.8301C5.62009 22.8901 5.67009 22.9401 5.69009 22.9901C5.70602 23.032 5.72612 23.0722 5.75009 23.1101L5.82009 23.1901C5.81652 23.2166 5.81652 23.2435 5.82009 23.2701L30.8201 53.5801L30.8801 53.6501C30.9187 53.692 30.9624 53.7289 31.0101 53.7601C31.0265 53.7643 31.0437 53.7643 31.0601 53.7601V53.7601L31.1601 53.8201H31.2101L31.3901 53.8801H31.4901H31.5401C31.6066 53.8857 31.6735 53.8857 31.7401 53.8801H32.0001C32.0666 53.8857 32.1335 53.8857 32.2001 53.8801H32.2501H32.3501L32.5301 53.8201L32.6301 53.7601C32.6465 53.7643 32.6637 53.7643 32.6801 53.7601C32.7278 53.7289 32.7715 53.692 32.8101 53.6501L32.8701 53.5801L57.8701 23.2701V23.1901L57.9401 23.1101C57.9641 23.0722 57.9842 23.032 58.0001 22.9901C58.0001 22.9401 58.0501 22.8901 58.0701 22.8301C58.2079 22.7935 58.3394 22.7362 58.4601 22.6601V22.6601ZM54.6001 20.8601H48.4801L45.1201 12.8601H50.6801L54.6001 20.8601ZM18.7801 20.8601L22.1301 12.8601H41.8701L45.2201 20.8601H18.7801ZM44.8501 23.8601L32.0001 49.3401L19.1401 23.8601H44.8501ZM13.3201 12.8601H18.8801L15.5201 20.8601H9.40009L13.3201 12.8601ZM15.8001 23.8601L24.6301 41.3801L10.1801 23.8601H15.8001ZM39.3801 41.3601L48.2101 23.8601H53.8201L39.3801 41.3601Z" fill="black"/>
</svg>
